<?xml version="1.0" encoding="iso-8859-1"?>
<!-- Generator: Adobe Illustrator 19.0.0, SVG Export Plug-In . SVG Version: 6.00 Build 0)  -->
<svg version="1.1" id="Capa_1" xmlns="http://www.w3.org/2000/svg" xmlns:xlink="http://www.w3.org/1999/xlink" x="0px" y="0px"
	 viewBox="0 0 525.85 525.85" style="enable-background:new 0 0 525.85 525.85;" xml:space="preserve">
<linearGradient id="SVGID_1_" gradientUnits="userSpaceOnUse" x1="376.972" y1="514.8914" x2="376.972" y2="34.8914" gradientTransform="matrix(1 0 0 -1 0 527.7827)">
	<stop  offset="0" style="stop-color:#00EFD1"/>
	<stop  offset="1" style="stop-color:#00ACEA"/>
</linearGradient>
<path style="fill:url(#SVGID_1_);" d="M376.972,169.58c-28.63,0-51.84,23.21-51.84,51.84s23.21,51.84,51.84,51.84
	s51.84-23.21,51.84-51.84c0,0,0-0.001,0-0.001C428.802,192.793,405.598,169.59,376.972,169.58z M351.052,252.523
	c-5.726-0.003-10.366-4.647-10.363-10.373s4.647-10.366,10.373-10.363c5.724,0.003,10.363,4.644,10.363,10.368
	C361.407,247.876,356.773,252.509,351.052,252.523z M387.34,226.603c-11.452,0.001-20.736-9.283-20.737-20.735
	c-0.001-11.452,9.283-20.736,20.735-20.737c11.452-0.001,20.736,9.283,20.737,20.735c0,0,0,0.001,0,0.001
	c0.003,11.449-9.275,20.733-20.724,20.736C387.347,226.603,387.344,226.603,387.34,226.603L387.34,226.603z"/>
<g>
	
		<linearGradient id="SVGID_2_" gradientUnits="userSpaceOnUse" x1="148.877" y1="514.8914" x2="148.877" y2="34.8914" gradientTransform="matrix(1 0 0 -1 0 527.7827)">
		<stop  offset="0" style="stop-color:#00EFD1"/>
		<stop  offset="1" style="stop-color:#00ACEA"/>
	</linearGradient>
	<path style="fill:url(#SVGID_2_);" d="M148.878,169.58c-28.63-0.001-51.84,23.209-51.841,51.839s23.209,51.84,51.839,51.841
		s51.84-23.209,51.841-51.839c0-0.001,0-0.001,0-0.002C200.707,192.794,177.504,169.591,148.878,169.58z M122.958,252.523
		c-5.726,0.001-10.368-4.641-10.369-10.367c-0.001-5.726,4.641-10.368,10.367-10.369c5.726-0.001,10.368,4.641,10.369,10.367
		c0,0,0,0.001,0,0.001C133.307,247.874,128.676,252.505,122.958,252.523z M159.246,226.603c-11.452,0-20.736-9.284-20.736-20.736
		s9.284-20.736,20.736-20.736s20.736,9.284,20.736,20.736c0.003,11.449-9.275,20.733-20.724,20.736
		C159.254,226.603,159.25,226.603,159.246,226.603L159.246,226.603z"/>
	
		<linearGradient id="SVGID_3_" gradientUnits="userSpaceOnUse" x1="127.093" y1="514.8914" x2="127.093" y2="34.8914" gradientTransform="matrix(1 0 0 -1 0 527.7827)">
		<stop  offset="0" style="stop-color:#00EFD1"/>
		<stop  offset="1" style="stop-color:#00ACEA"/>
	</linearGradient>
	<path style="fill:url(#SVGID_3_);" d="M149.825,152.484l-1.689-19.929c-17.668,1.483-33.738,10.82-43.775,25.436l16.464,11.36
		C127.473,159.664,138.118,153.473,149.825,152.484z"/>
	
		<linearGradient id="SVGID_4_" gradientUnits="userSpaceOnUse" x1="398.757" y1="514.8914" x2="398.757" y2="34.8914" gradientTransform="matrix(1 0 0 -1 0 527.7827)">
		<stop  offset="0" style="stop-color:#00EFD1"/>
		<stop  offset="1" style="stop-color:#00ACEA"/>
	</linearGradient>
	<path style="fill:url(#SVGID_4_);" d="M405.03,169.351l16.459-11.36c-10.038-14.616-26.107-23.953-43.776-25.435l-1.688,19.928
		C387.734,153.471,398.381,159.663,405.03,169.351L405.03,169.351z"/>
	
		<linearGradient id="SVGID_5_" gradientUnits="userSpaceOnUse" x1="262.9285" y1="514.8914" x2="262.9285" y2="34.8914" gradientTransform="matrix(1 0 0 -1 0 527.7827)">
		<stop  offset="0" style="stop-color:#00EFD1"/>
		<stop  offset="1" style="stop-color:#00ACEA"/>
	</linearGradient>
	<path style="fill:url(#SVGID_5_);" d="M284.49,351.391c-9.406,0-14.6,4.982-17.7,7.959c-2.512,2.409-2.7,2.409-3.915,2.409
		c-1.181,0-1.363,0-3.85-2.392c-3.1-2.983-8.3-7.976-17.715-7.976s-14.482,4.982-17.584,7.958c-2.513,2.41-2.8,2.41-3.8,2.41v20
		c9,0,14.533-4.993,17.644-7.977c2.493-2.391,2.616-2.391,3.8-2.391s1.335,0,3.824,2.393c3.1,2.983,8.279,7.975,17.7,7.975
		c9.444,0,14.642-4.993,17.752-7.976c2.493-2.392,2.672-2.392,3.854-2.392s1.27,0,3.764,2.391c3.11,2.984,8.667,7.977,17.667,7.977
		v-20c-1,0-1.312,0-3.825-2.41C298.998,356.368,293.896,351.391,284.49,351.391z"/>
	
		<linearGradient id="SVGID_6_" gradientUnits="userSpaceOnUse" x1="262.925" y1="514.8914" x2="262.925" y2="34.8914" gradientTransform="matrix(1 0 0 -1 0 527.7827)">
		<stop  offset="0" style="stop-color:#00EFD1"/>
		<stop  offset="1" style="stop-color:#00ACEA"/>
	</linearGradient>
	<path style="fill:url(#SVGID_6_);" d="M506.015,272.175c0.122-3.2,0.188-6.284,0.188-9.284
		c0.004-134.355-108.909-243.274-243.264-243.278c-64.525-0.002-126.408,25.631-172.033,71.26
		c-45.773,45.521-71.433,107.463-71.259,172.018c0,3,0.064,6.073,0.181,9.27C7.457,280.851,0.066,294.999,0,310.117
		c0.002,22.35,15.97,41.508,37.954,45.537c51.28,124.242,193.569,183.39,317.811,132.11c59.859-24.706,107.403-72.251,132.11-132.11
		c21.995-4.013,37.977-23.176,37.975-45.535C525.791,295.001,518.395,280.853,506.015,272.175L506.015,272.175z M46.287,336.891
		c-7.023-0.056-13.729-2.927-18.617-7.97c-10.303-10.411-10.216-27.203,0.195-37.506c1.984-1.963,4.265-3.601,6.76-4.853
		c1.609-0.778,3.287-1.402,5.013-1.865l43.409-11.34l-11.345,43.671c-2.948,11.384-13.253,18.863-25.07,19.863H46.287z
		 M389.814,446.623c-101.517,70.087-240.63,44.607-310.717-56.91c-7.666-11.103-14.309-22.878-19.85-35.181
		c15.614-4.559,27.689-16.977,31.811-32.712l15.655-59.929c1.394-5.344-1.809-10.806-7.153-12.2c-1.655-0.432-3.393-0.432-5.047,0
		l-54.858,14.33c0-0.375-0.008-0.757-0.008-1.13c0-123.116,100.162-223.278,223.278-223.278s223.278,100.162,223.278,223.278
		c0,0.373-0.007,0.755-0.008,1.13l-54.856-14.33c-5.344-1.394-10.806,1.809-12.2,7.153c-0.432,1.655-0.432,3.393,0,5.047
		l15.651,59.914c4.097,15.745,16.168,28.177,31.785,32.737C449.866,391.663,423.321,423.506,389.814,446.623L389.814,446.623z
		 M498.125,328.978c-4.864,4.9-11.409,6.913-18.432,7.913h-0.128c-12.001-0.099-22.434-8.259-25.42-19.883l-11.341-43.53
		l43.359,11.266c1.687,0.438,3.328,1.039,4.9,1.793c9.028,4.462,14.756,13.647,14.79,23.717
		C505.889,317.279,503.105,324.024,498.125,328.978z"/>
</g>
<g>
</g>
<g>
</g>
<g>
</g>
<g>
</g>
<g>
</g>
<g>
</g>
<g>
</g>
<g>
</g>
<g>
</g>
<g>
</g>
<g>
</g>
<g>
</g>
<g>
</g>
<g>
</g>
<g>
</g>
</svg>
